<svg width="28" height="28" viewBox="0 0 28 28" fill="none" xmlns="http://www.w3.org/2000/svg">
<path d="M13.4167 17.5H8.16667C6.92899 17.5 5.742 17.9917 4.86683 18.8668C3.99167 19.742 3.5 20.929 3.5 22.1667V24.5" stroke="black" stroke-width="2.33333" stroke-linecap="round" stroke-linejoin="round"/>
<path d="M11.6667 12.8333C14.244 12.8333 16.3333 10.744 16.3333 8.16667C16.3333 5.58934 14.244 3.5 11.6667 3.5C9.08934 3.5 7 5.58934 7 8.16667C7 10.744 9.08934 12.8333 11.6667 12.8333Z" stroke="black" stroke-width="2.33333" stroke-linecap="round" stroke-linejoin="round"/>
<g clip-path="url(#clip0_1_10)">
<path d="M12.6162 21.8837C12.3818 22.1181 12.2501 22.436 12.25 22.7675V24.125C12.25 24.2908 12.3158 24.4497 12.4331 24.5669C12.5503 24.6842 12.7092 24.75 12.875 24.75H14.75C14.9158 24.75 15.0747 24.6842 15.1919 24.5669C15.3092 24.4497 15.375 24.2908 15.375 24.125V23.5C15.375 23.3342 15.4408 23.1753 15.5581 23.0581C15.6753 22.9408 15.8342 22.875 16 22.875H16.625C16.7908 22.875 16.9497 22.8092 17.0669 22.6919C17.1842 22.5747 17.25 22.4158 17.25 22.25V21.625C17.25 21.4592 17.3158 21.3003 17.4331 21.1831C17.5503 21.0658 17.7092 21 17.875 21H17.9825C18.314 20.9999 18.6319 20.8682 18.8662 20.6337L19.375 20.125C20.2436 20.4276 21.1893 20.4264 22.0572 20.1217C22.9251 19.817 23.6639 19.2268 24.1527 18.4476C24.6416 17.6684 24.8515 16.7464 24.7482 15.8323C24.6449 14.9183 24.2344 14.0664 23.584 13.416C22.9336 12.7656 22.0817 12.3551 21.1677 12.2518C20.2536 12.1485 19.3316 12.3584 18.5524 12.8473C17.7732 13.3361 17.183 14.0749 16.8783 14.9428C16.5736 15.8107 16.5724 16.7564 16.875 17.625L12.6162 21.8837Z" stroke="black" stroke-width="2" stroke-linecap="round" stroke-linejoin="round"/>
<path d="M21.3125 16C21.4851 16 21.625 15.8601 21.625 15.6875C21.625 15.5149 21.4851 15.375 21.3125 15.375C21.1399 15.375 21 15.5149 21 15.6875C21 15.8601 21.1399 16 21.3125 16Z" fill="black" stroke="black" stroke-linecap="round" stroke-linejoin="round"/>
</g>
<defs>
<clipPath id="clip0_1_10">
<rect width="15" height="15" fill="white" transform="translate(11 11)"/>
</clipPath>
</defs>
</svg>
