<svg width="28" height="28" viewBox="0 0 28 28" fill="none" xmlns="http://www.w3.org/2000/svg">
<path d="M12.75 5.62069V2.60345C12.75 2.4434 12.8158 2.28991 12.9331 2.17675C13.0503 2.06358 13.2092 2 13.375 2H14.625C14.7908 2 14.9497 2.06358 15.0669 2.17675C15.1842 2.28991 15.25 2.4434 15.25 2.60345V5.62069M9 8.63793V6.82759C9 5.86732 9.39509 4.94638 10.0983 4.26737C10.8016 3.58836 11.7554 3.2069 12.75 3.2069M15.25 3.2069C16.2446 3.2069 17.1984 3.58836 17.9017 4.26737C18.6049 4.94638 19 5.86732 19 6.82759V8.63793M7.75 10.4483C7.75 10.6083 7.81585 10.7618 7.93306 10.875C8.05027 10.9881 8.20924 11.0517 8.375 11.0517H19.625C19.7908 11.0517 19.9497 10.9881 20.0669 10.875C20.1842 10.7618 20.25 10.6083 20.25 10.4483V9.24138C20.25 9.08133 20.1842 8.92785 20.0669 8.81468C19.9497 8.70151 19.7908 8.63793 19.625 8.63793H8.375C8.20924 8.63793 8.05027 8.70151 7.93306 8.81468C7.81585 8.92785 7.75 9.08133 7.75 9.24138V10.4483ZM18 12.7844C18 14.5603 16.2091 16 14 16C11.7909 16 9.99999 14.5603 10 12.7844C10 10.6897 9.50001 11.1767 14 11.1767C18.295 11.1767 18 10.5365 18 12.7844Z" stroke="black" stroke-width="1.8" stroke-linecap="round" stroke-linejoin="round"/>
<path d="M21 24.5V22.5C21 21.4391 20.5786 20.4217 19.8284 19.6716C19.0783 18.9214 18.0609 18.5 17 18.5H11C9.93913 18.5 8.92172 18.9214 8.17157 19.6716C7.42143 20.4217 7 21.4391 7 22.5V24.5" stroke="black" stroke-width="2" stroke-linecap="round" stroke-linejoin="round"/>
</svg>
